<?xml version="1.0" standalone="no"?>
<!DOCTYPE svg PUBLIC "-//W3C//DTD SVG 20010904//EN"
 "http://www.w3.org/TR/2001/REC-SVG-20010904/DTD/svg10.dtd">
<svg version="1.0" xmlns="http://www.w3.org/2000/svg"
 width="512.000000pt" height="512.000000pt" viewBox="0 0 512.000000 512.000000"
 preserveAspectRatio="xMidYMid meet">

<g transform="translate(0.000000,512.000000) scale(0.100000,-0.100000)"
fill="#000000" stroke="none">
<path d="M2436 5104 c-142 -34 -290 -149 -354 -275 -59 -116 -64 -147 -69
-459 l-4 -285 318 -549 c317 -547 318 -549 358 -561 58 -17 161 -71 231 -121
59 -42 184 -168 184 -185 0 -5 5 -9 10 -9 8 0 10 308 8 998 -3 918 -5 1002
-21 1057 -84 284 -378 457 -661 389z"/>
<path d="M823 4746 c-194 -47 -364 -221 -403 -413 -16 -75 -8 -234 15 -298 9
-27 164 -305 344 -617 l326 -566 30 20 c55 36 209 106 275 124 55 15 125 18
465 23 l401 6 -358 620 c-197 341 -393 681 -435 755 -120 208 -225 301 -393
345 -66 18 -196 18 -267 1z"/>
<path d="M3415 3582 c-7 -7 -7 -1877 0 -1884 12 -12 132 22 200 57 135 68 239
198 281 351 17 63 19 108 19 534 0 426 -2 471 -19 534 -42 153 -146 283 -281
351 -68 35 -188 69 -200 57z"/>
<path d="M4075 3583 c-46 -10 -46 -12 -5 -72 55 -80 97 -175 120 -274 18 -76
20 -119 20 -597 0 -478 -2 -521 -20 -597 -23 -99 -65 -194 -120 -274 -25 -36
-36 -61 -29 -65 6 -3 48 -9 92 -11 257 -15 495 157 564 407 16 58 18 115 18
540 0 425 -2 482 -18 540 -66 239 -293 412 -537 409 -36 -1 -74 -3 -85 -6z"/>
<path d="M1486 2704 c-195 -47 -358 -213 -407 -414 -20 -79 -20 -961 0 -1040
73 -298 368 -483 660 -415 191 45 356 204 406 390 10 37 18 124 22 228 l6 167
151 0 c177 0 247 14 348 67 129 68 237 201 272 338 20 76 20 214 0 290 -47
184 -214 345 -405 390 -91 21 -964 21 -1053 -1z"/>
<path d="M4655 1548 c-64 -48 -186 -106 -277 -130 -66 -18 -110 -22 -213 -22
-140 0 -206 12 -319 60 -76 33 -86 33 -162 0 -113 -48 -179 -60 -319 -60 -145
0 -233 19 -358 76 l-67 31 -43 -30 c-103 -74 -248 -129 -389 -148 -46 -6 -48
-8 -48 -38 0 -51 -37 -191 -68 -260 -116 -255 -350 -440 -621 -491 -46 -9 -98
-16 -117 -16 -19 0 -34 -2 -34 -5 0 -4 160 -434 185 -497 7 -17 77 -18 1285
-18 l1279 0 19 53 c11 28 90 239 176 469 l156 416 0 321 c-1 246 -4 321 -13
320 -7 0 -30 -14 -52 -31z"/>
</g>
</svg>
